<svg width="194" height="80" viewBox="0 0 194 80" fill="none" xmlns="http://www.w3.org/2000/svg">
<g filter="url(#filter0_d_253_28)">
<mask id="path-1-inside-1_253_28" fill="white">
<rect y="3.05176e-05" width="190" height="74.4595" rx="8"/>
</mask>
<rect y="3.05176e-05" width="190" height="74.4595" rx="8" fill="#30BCED"/>
<rect y="3.05176e-05" width="190" height="74.4595" rx="8" stroke="#279AC2" stroke-width="18" stroke-dasharray="2 2" mask="url(#path-1-inside-1_253_28)"/>
</g>
<path d="M65.9421 38V46H62.1021V24.24H69.3661C71.5634 24.24 73.2488 24.8054 74.4221 25.936C75.6168 27.0454 76.2141 28.5387 76.2141 30.416V31.792C76.2141 33.0294 75.9474 34.1174 75.4141 35.056C74.8808 35.9947 74.1128 36.7094 73.1101 37.2C74.8594 40.1867 76.3528 43.12 77.5901 46H73.2061C72.1394 43.3334 70.8701 40.6667 69.3981 38H65.9421ZM69.3661 27.76H65.9421V34.48H69.3661C70.3048 34.48 71.0194 34.2454 71.5101 33.776C72.0221 33.2854 72.2781 32.624 72.2781 31.792V30.416C72.2781 29.6054 72.0221 28.9654 71.5101 28.496C71.0194 28.0054 70.3048 27.76 69.3661 27.76ZM86.2101 24.24H90.1461V38.192C90.1461 39.6 90.4554 40.7094 91.0741 41.52C91.6928 42.3094 92.6848 42.704 94.0501 42.704C95.4154 42.704 96.4074 42.3094 97.0261 41.52C97.6448 40.7094 97.9541 39.6 97.9541 38.192V24.24H101.89V38.192C101.89 40.6454 101.239 42.6187 99.9381 44.112C98.6368 45.584 96.6741 46.32 94.0501 46.32C91.4048 46.32 89.4314 45.584 88.1301 44.112C86.8501 42.6187 86.2101 40.6454 86.2101 38.192V24.24ZM112.53 46V24.24H116.05C117.735 26.4374 119.335 28.7627 120.85 31.216C122.364 33.648 123.74 36.1547 124.978 38.736L124.69 32.24V24.24H128.37V46H124.85C123.484 43.312 122.066 40.6134 120.594 37.904C119.143 35.1734 117.596 32.6027 115.954 30.192L116.21 37.68V46H112.53Z" fill="#303036"/>
<defs>
<filter id="filter0_d_253_28" x="0" y="3.05176e-05" width="194" height="79.4594" filterUnits="userSpaceOnUse" color-interpolation-filters="sRGB">
<feFlood flood-opacity="0" result="BackgroundImageFix"/>
<feColorMatrix in="SourceAlpha" type="matrix" values="0 0 0 0 0 0 0 0 0 0 0 0 0 0 0 0 0 0 127 0" result="hardAlpha"/>
<feOffset dx="4" dy="5"/>
<feComposite in2="hardAlpha" operator="out"/>
<feColorMatrix type="matrix" values="0 0 0 0 0.156979 0 0 0 0 0.464032 0 0 0 0 0.570833 0 0 0 1 0"/>
<feBlend mode="normal" in2="BackgroundImageFix" result="effect1_dropShadow_253_28"/>
<feBlend mode="normal" in="SourceGraphic" in2="effect1_dropShadow_253_28" result="shape"/>
</filter>
</defs>
</svg>
